{
    "asset" : {
        "generator" : "Khronos glTF Blender I/O v1.6.16",
        "version" : "2.0"
    },
    "scene" : 0,
    "scenes" : [
        {
            "name" : "Scene",
            "nodes" : [
                0,
                1,
                2,
                3,
                4,
                5,
                6
            ]
        }
    ],
    "nodes" : [
        {
            "mesh" : 0,
            "name" : "Cube",
            "translation" : [
                -0.04399614781141281,
                0.012127459049224854,
                0.17028455436229706
            ]
        },
        {
            "name" : "Light",
            "rotation" : [
                0.16907577216625214,
                0.7558802962303162,
                -0.27217137813568115,
                0.570947527885437
            ],
            "translation" : [
                4.076245307922363,
                5.903861999511719,
                -1.0054538249969482
            ]
        },
        {
            "name" : "Camera",
            "rotation" : [
                0.483536034822464,
                0.33687159419059753,
                -0.20870360732078552,
                0.7804827094078064
            ],
            "translation" : [
                7.358891487121582,
                4.958309173583984,
                6.925790786743164
            ]
        },
        {
            "name" : "Empty"
        },
        {
            "mesh" : 1,
            "name" : "Plane"
        },
        {
            "mesh" : 2,
            "name" : "Circle",
            "scale" : [
                0.40999293327331543,
                0.40999293327331543,
                0.40999293327331543
            ],
            "translation" : [
                0,
                0.019527822732925415,
                0
            ]
        },
        {
            "mesh" : 3,
            "name" : "Circle.001",
            "scale" : [
                1.3330402374267578,
                1.3330402374267578,
                1.3330402374267578
            ],
            "translation" : [
                1.381710171699524e-05,
                -0.28977182507514954,
                -2.627447247505188e-05
            ]
        }
    ],
    "materials" : [
        {
            "doubleSided" : true,
            "name" : "Material",
            "pbrMetallicRoughness" : {
                "baseColorFactor" : [
                    0.10702310502529144,
                    0.0802198275923729,
                    0.8713670969009399,
                    1
                ],
                "metallicFactor" : 0.8909091353416443,
                "roughnessFactor" : 0
            }
        },
        {
            "doubleSided" : true,
            "name" : "Material.001",
            "pbrMetallicRoughness" : {
                "baseColorFactor" : [
                    0.26225075125694275,
                    0.23074008524417877,
                    0.838798999786377,
                    1
                ],
                "metallicFactor" : 0.890999972820282,
                "roughnessFactor" : 0
            }
        },
        {
            "doubleSided" : true,
            "name" : "Material.003",
            "pbrMetallicRoughness" : {
                "baseColorFactor" : [
                    0.2999995946884155,
                    0.2999995946884155,
                    0.2999995946884155,
                    1
                ],
                "metallicFactor" : 0
            }
        }
    ],
    "meshes" : [
        {
            "name" : "Cube",
            "primitives" : [
                {
                    "attributes" : {
                        "POSITION" : 0,
                        "NORMAL" : 1,
                        "TEXCOORD_0" : 2
                    },
                    "indices" : 3,
                    "material" : 0
                }
            ]
        },
        {
            "name" : "Plane",
            "primitives" : [
                {
                    "attributes" : {
                        "POSITION" : 4,
                        "NORMAL" : 5,
                        "TEXCOORD_0" : 6
                    },
                    "indices" : 7
                }
            ]
        },
        {
            "name" : "Circle",
            "primitives" : [
                {
                    "attributes" : {
                        "POSITION" : 8,
                        "NORMAL" : 9,
                        "TEXCOORD_0" : 10
                    },
                    "indices" : 11,
                    "material" : 1
                }
            ]
        },
        {
            "name" : "Circle.001",
            "primitives" : [
                {
                    "attributes" : {
                        "POSITION" : 12,
                        "NORMAL" : 13,
                        "TEXCOORD_0" : 14
                    },
                    "indices" : 15,
                    "material" : 2
                }
            ]
        }
    ],
    "accessors" : [
        {
            "bufferView" : 0,
            "componentType" : 5126,
            "count" : 637,
            "max" : [
                1.233208417892456,
                0.016712695360183716,
                0.9716739654541016
            ],
            "min" : [
                -1.0585846900939941,
                -0.012127459049224854,
                -1.3043678998947144
            ],
            "type" : "VEC3"
        },
        {
            "bufferView" : 1,
            "componentType" : 5126,
            "count" : 637,
            "type" : "VEC3"
        },
        {
            "bufferView" : 2,
            "componentType" : 5126,
            "count" : 637,
            "type" : "VEC2"
        },
        {
            "bufferView" : 3,
            "componentType" : 5123,
            "count" : 1380,
            "type" : "SCALAR"
        },
        {
            "bufferView" : 4,
            "componentType" : 5126,
            "count" : 25,
            "max" : [
                1,
                0,
                1
            ],
            "min" : [
                -1,
                0,
                -1
            ],
            "type" : "VEC3"
        },
        {
            "bufferView" : 5,
            "componentType" : 5126,
            "count" : 25,
            "type" : "VEC3"
        },
        {
            "bufferView" : 6,
            "componentType" : 5126,
            "count" : 25,
            "type" : "VEC2"
        },
        {
            "bufferView" : 7,
            "componentType" : 5123,
            "count" : 96,
            "type" : "SCALAR"
        },
        {
            "bufferView" : 8,
            "componentType" : 5126,
            "count" : 768,
            "max" : [
                1,
                0.006274056620895863,
                1
            ],
            "min" : [
                -1,
                -0.047629643231630325,
                -1
            ],
            "type" : "VEC3"
        },
        {
            "bufferView" : 9,
            "componentType" : 5126,
            "count" : 768,
            "type" : "VEC3"
        },
        {
            "bufferView" : 10,
            "componentType" : 5126,
            "count" : 768,
            "type" : "VEC2"
        },
        {
            "bufferView" : 11,
            "componentType" : 5123,
            "count" : 1908,
            "type" : "SCALAR"
        },
        {
            "bufferView" : 12,
            "componentType" : 5126,
            "count" : 2276,
            "max" : [
                0.9677448868751526,
                0.21707092225551605,
                0.9335460662841797
            ],
            "min" : [
                -0.9021419882774353,
                0.19028916954994202,
                -0.9526955485343933
            ],
            "type" : "VEC3"
        },
        {
            "bufferView" : 13,
            "componentType" : 5126,
            "count" : 2276,
            "type" : "VEC3"
        },
        {
            "bufferView" : 14,
            "componentType" : 5126,
            "count" : 2276,
            "type" : "VEC2"
        },
        {
            "bufferView" : 15,
            "componentType" : 5123,
            "count" : 6132,
            "type" : "SCALAR"
        }
    ],
    "bufferViews" : [
        {
            "buffer" : 0,
            "byteLength" : 7644,
            "byteOffset" : 0
        },
        {
            "buffer" : 0,
            "byteLength" : 7644,
            "byteOffset" : 7644
        },
        {
            "buffer" : 0,
            "byteLength" : 5096,
            "byteOffset" : 15288
        },
        {
            "buffer" : 0,
            "byteLength" : 2760,
            "byteOffset" : 20384
        },
        {
            "buffer" : 0,
            "byteLength" : 300,
            "byteOffset" : 23144
        },
        {
            "buffer" : 0,
            "byteLength" : 300,
            "byteOffset" : 23444
        },
        {
            "buffer" : 0,
            "byteLength" : 200,
            "byteOffset" : 23744
        },
        {
            "buffer" : 0,
            "byteLength" : 192,
            "byteOffset" : 23944
        },
        {
            "buffer" : 0,
            "byteLength" : 9216,
            "byteOffset" : 24136
        },
        {
            "buffer" : 0,
            "byteLength" : 9216,
            "byteOffset" : 33352
        },
        {
            "buffer" : 0,
            "byteLength" : 6144,
            "byteOffset" : 42568
        },
        {
            "buffer" : 0,
            "byteLength" : 3816,
            "byteOffset" : 48712
        },
        {
            "buffer" : 0,
            "byteLength" : 27312,
            "byteOffset" : 52528
        },
        {
            "buffer" : 0,
            "byteLength" : 27312,
            "byteOffset" : 79840
        },
        {
            "buffer" : 0,
            "byteLength" : 18208,
            "byteOffset" : 107152
        },
        {
            "buffer" : 0,
            "byteLength" : 12264,
            "byteOffset" : 125360
        }
    ],
    "buffers" : [
        {
            "byteLength" : 137624,
            "uri" : "data:application/octet-stream;base64,"
        }
    ]
}
