<?xml version="1.0" encoding="utf-8"?>
<!-- Generator: Adobe Illustrator 24.0.3, SVG Export Plug-In . SVG Version: 6.00 Build 0)  -->
<svg version="1.1" id="Layer_1" xmlns="http://www.w3.org/2000/svg" xmlns:xlink="http://www.w3.org/1999/xlink" x="0px" y="0px"
	 viewBox="0 0 539.7 118.3" style="enable-background:new 0 0 539.7 118.3;" xml:space="preserve">
<style type="text/css">
	.st0{fill:#FFFFFF;}
	.st1{fill:#86D5F5;}
</style>
<g>
	<g>
		<path class="st0" d="M183.8,38c-2.1-2.1-4.5-3.6-7.2-5.1s-6-2.4-9.6-2.7c-2.1,0-4.5,0-6.6,0c-2.1,0.3-3.9,0.6-5.4,0.9
			c-3.6,1.2-6.9,3-9.6,5.1c-2.7,2.1-5.1,4.8-6.6,7.8c-0.9,1.5-1.8,3.3-2.4,5.1c-0.6,1.8-1.2,3.6-1.2,5.7c-0.3,1.2-0.3,2.7,0,3.9
			c0,1.5,0,3,0,4.5v14.7c0,0.6-0.3,0.9-0.6,1.2c-0.3,0.3-0.9,0.6-1.2,0.6h-23.7c-2.1,0-12.9,0-15.6-0.3c-7.8-0.6-13.5-4.5-16.8-10.8
			c-1.2-1.8-1.8-4.8-2.1-6.3L75,60.8h46.1c1.5,0,2.1-0.6,2.7-1.2c0.6-0.9,0.9-1.8,0.9-3V56c0-0.3,0-0.9,0-1.2
			c-0.3-1.8-1.2-5.7-1.2-6.3c-0.3-0.6-0.6-1.5-0.9-2.1c-0.9-2.1-2.4-4.2-3.9-6.3c-1.5-2.1-3.3-3.9-5.1-5.4c-1.8-1.5-4.2-2.7-6.6-3.9
			c-2.4-0.9-4.8-1.5-7.5-1.8c-2.4-0.3-4.8-0.3-6.9,0c-2.1,0.3-3.9,0.6-5.4,1.2c-2.4,0.9-4.8,1.8-6.6,3c-1.8,1.2-3.6,2.7-5.1,4.2
			c-1.2,1.2-2.4,2.7-3.6,4.5c-1.2,1.5-2.1,3.6-3,5.4c-0.9,1.8-1.5,4.2-1.8,6.3c-0.3,2.4-0.3,4.8,0,7.5c0.3,3.6,1.2,6.9,2.7,9.6
			c1.5,2.7,3.3,5.4,5.7,7.5c2.1,2.1,4.5,3.9,7.5,5.4c3,1.5,6,2.4,9.6,3c1.5,0,6.3,0.3,11.1,0.3c1.2,0,2.7,0,3.9,0H137
			c3.9,0,6.9-3,6.9-6.9v-7.2c0-2.7,0-5.1-0.3-7.8c0-2.7,0-5.4,0.3-7.8c0.3-3.3,1.2-6.3,2.4-8.7c1.2-2.4,3-4.5,5.1-6.6
			c1.8-1.5,3.9-2.7,6.6-3.6c2.4-0.9,5.1-1.2,7.8-1.2c5.1,0.3,9.3,1.8,12.3,4.8c1.8,1.8,3.6,3.9,5.4,7.2c0.6,0.9,1.2,2.1,2.7,2.1l0,0
			c4.8,0.3,5.1-0.9,5.4-1.5c0.6-1.5-0.9-4.8-1.5-5.7C187.6,42.2,185.9,39.8,183.8,38z M75.3,53c0.3-0.9,0.6-1.8,1.2-3
			c1.2-2.1,3.3-5.4,6.3-7.8l0,0l0.3-0.3c1.8-1.8,6.3-3.9,12.3-3.9c6.3,0,9.9,1.8,12.6,3.9c3.3,2.4,6,6.6,6.9,8.7
			c0.3,0.9,0.6,1.8,0.9,2.4C115.7,53,75.3,53,75.3,53z"/>
		<path class="st0" d="M271,38.9c-1.2-1.2-2.7-2.4-4.5-3.6c-1.8-1.2-3.6-2.1-5.4-3c-2.1-0.9-4.2-1.2-6.6-1.5c-2.4-0.3-4.8-0.3-7.5,0
			c-1.2,0.3-2.1,0.3-3,0.6s-1.8,0.3-2.4,0.6l0,0c-2.4,0.9-4.5,1.8-6.3,3c-1.8,1.2-3.6,2.7-5.1,4.2c-2.1,2.1-3.6,4.5-5.1,7.2
			c-1.5,2.7-2.4,6-2.7,9.6c-0.3,2.7-0.3,5.4,0,7.5c0.3,2.4,0.9,4.5,1.8,6.3c0.9,1.8,1.8,3.6,3,5.4c1.2,1.5,2.4,3,3.6,4.2
			c1.2,1.2,2.7,2.4,4.5,3.6c1.5,1.2,3.3,2.1,5.4,3c2.1,0.9,4.2,1.5,6.3,1.8c1.2,0.3,2.4,0.3,3.9,0.3c1.2,0,2.4,0,3.6-0.3
			c3.6-0.3,6.9-1.2,9.6-2.7c2.7-1.5,5.4-3.3,7.2-5.4c2.1-2.1,3.9-4.5,5.4-7.5c1.5-2.7,2.4-6,2.7-9.6c0.6-5.4,0-10.2-1.8-13.8
			C275.7,44.6,273.6,41.3,271,38.9z M271.6,59.6c-0.3,3-0.9,5.7-1.8,8.1c-1.2,2.4-2.4,4.5-4.2,6.3s-3.9,3-6,4.2
			c-2.4,1.2-4.8,1.8-7.5,1.8h-0.3c-0.9,0-1.8,0-2.7,0s-1.8-0.3-2.4-0.3c-4.5-0.9-8.4-3.3-11.4-6.6s-4.8-7.8-5.1-12.6
			c0-0.9,0-1.8,0-2.7s0.3-1.8,0.3-2.4c0.6-2.4,1.5-4.5,2.7-6.3c1.2-1.8,2.4-3.3,3.9-4.5c1.5-1.5,3.3-2.7,5.4-3.6
			c1.8-0.9,4.2-1.5,6.9-1.8c3-0.3,5.7,0,8.4,1.2c2.7,0.9,4.8,2.4,6.6,3.9c1.8,1.5,3.3,3.6,4.8,6c1.5,2.4,2.4,5.4,2.4,8.7L271.6,59.6
			z"/>
		<path class="st1" d="M206.5,11.6c-2.4,0-4.5,2.1-4.5,4.5l0,0c0,2.4,2.1,4.5,4.5,4.5c1.8,0,3-0.9,3.9-2.1c0.3-0.6,0.6-1.5,0.6-2.4
			l0,0l0,0C211.3,13.7,209.2,11.6,206.5,11.6z"/>
		<path class="st1" d="M362.3,11.6c-2.4,0-4.5,2.1-4.5,4.5s2.1,4.5,4.5,4.5s4.5-2.1,4.5-4.5S365,11.6,362.3,11.6z"/>
		<path class="st1" d="M476.5,11.6c-2.4,0-4.5,2.1-4.5,4.5s2.1,4.5,4.5,4.5s4.5-2.1,4.5-4.5S478.9,11.6,476.5,11.6z"/>
		<path class="st0" d="M208,29.3h-3c-1.2,0-2.4,1.2-2.4,2.4v53.6c0,1.2,1.2,2.4,2.4,2.4h3c1.2,0,2.4-1.2,2.4-2.4V31.7
			C210.4,30.2,209.5,29.3,208,29.3z"/>
		<path class="st0" d="M432.2,67.1h-4.8c-0.9,0-1.8,0.6-2.4,1.5c-0.6,0.9-1.2,1.8-1.8,2.7c-1.2,1.5-2.7,3-4.2,4.2
			c-1.5,1.2-3.3,2.1-5.7,3c-2.1,0.9-4.5,1.2-6.9,1.2c-3,0-6-0.6-8.4-1.8c-2.4-1.2-4.5-2.7-6-4.2c-1.8-1.8-3.3-3.9-4.5-6.6
			c-1.2-2.4-1.8-5.1-1.8-8.4c0-3,0.6-6,1.8-8.4c1.2-2.7,3-4.8,4.5-6.6c1.8-1.8,3.6-3,6-4.2s5.4-1.8,8.4-1.8c2.4,0,4.8,0.3,6.9,1.2
			c2.1,0.9,3.9,1.8,5.7,3c1.8,1.2,3,2.7,4.2,4.2c0.6,0.9,1.2,1.8,1.8,2.7c0.6,0.9,1.5,1.5,2.4,1.5h4.8l0,0c0.6,0,1.2-0.3,1.5-0.9
			c0.6-1.2-0.3-3-1.8-5.7l0,0c-1.5-2.4-3.3-4.5-5.4-6.6c-2.7-2.4-5.7-4.2-9.3-5.7c-3.6-1.5-7.8-2.1-12.9-1.8
			c-3.6,0.3-6.9,1.2-9.9,2.7c-3,1.5-5.7,3.3-7.8,5.4c-1.2,1.2-2.4,2.7-3.6,4.2s-2.1,3.6-3,5.4c-0.9,2.1-1.5,4.2-1.8,6.6
			c-0.3,1.2-0.3,2.7-0.3,4.2c0,1.8,0,3,0.3,4.2c0.3,2.4,0.9,4.5,1.8,6.6c0.9,2.1,1.8,3.9,3,5.4c1.2,1.5,2.4,3,3.6,4.2
			c2.1,2.1,4.8,3.9,7.8,5.4c3,1.5,6.3,2.4,9.6,2.7c1.2,0,2.1,0,3,0c3.9,0,7.2-0.6,9.9-1.8c3.6-1.5,6.6-3.6,9.3-5.7
			c2.1-2.1,3.9-4.2,5.4-6.6l0,0c1.8-2.7,2.4-4.5,1.8-5.7C433.4,67.4,432.8,67.1,432.2,67.1z"/>
		<path class="st0" d="M363.8,29.3h-3c-1.2,0-2.4,1.2-2.4,2.4v53.6c0,1.2,1.2,2.4,2.4,2.4h3c1.2,0,2.4-1.2,2.4-2.4V31.7
			C366.2,30.2,365.3,29.3,363.8,29.3z"/>
		<path class="st0" d="M56.1,49.1c-1.5-3.6-3.9-6.9-6.6-9.6c-2.1-2.1-4.5-3.9-7.5-5.4c-2.7-1.5-6-2.4-9.3-2.7c-3-0.3-5.7-0.3-8.1,0
			s-4.5,0.9-6.3,1.5c-1.8,0.9-3.6,1.8-5.1,3c-1.5,1.2-3,2.4-4.5,3.9C6.7,41.6,5.2,44,3.7,47c-1.5,2.7-2.4,6-2.7,9.3
			c-0.3,2.4-0.3,5.1-0.3,7.5c0,1.2,0,2.4,0,3.6v47c0,1.2,1.2,2.4,2.4,2.4H4c0.3,0,0.3,0,0.6,0c0.3,0,0.3,0,0.6,0h0.9
			c1.5,0,2.7-0.9,2.7-2.4v-1.2c0,0,0,0,0-0.3v-33l2.7,1.8c3,1.8,6,3.6,9.3,4.8c3,1.2,6.6,1.5,10.5,1.5c3.3-0.3,6.6-1.2,9.9-2.4
			c3-1.5,6-3.3,8.4-5.7c2.4-2.4,4.5-4.8,5.7-7.8c1.5-3,2.4-6,2.7-9.3C58.2,57.2,57.6,52.7,56.1,49.1L56.1,49.1z M49.8,60.5
			c0,3.9-1.5,7.8-4.2,11.1c-1.8,2.4-4.5,4.5-7.5,6.3c-2.4,1.5-5.1,2.1-7.8,2.4c-4.2,0.3-8.1-0.6-11.4-2.7c-3-1.8-5.1-3.6-6.6-6
			c-1.2-1.5-2.1-3.6-3-5.7c-0.3-2.4-0.9-4.8-0.6-6.9c0-2.7,0.6-5.4,1.5-7.8c0.9-2.4,2.4-4.5,4.2-6.3c1.8-1.8,3.9-3.3,6.3-4.2
			c2.4-1.2,5.1-1.8,8.1-1.8c0.3,0,0.9,0,1.2,0c3.6,0,6.9,0.9,9.9,2.7c3.3,2.1,6,4.8,7.8,8.1C49.2,53,50.1,56.6,49.8,60.5z"/>
		<path class="st0" d="M346.8,41.3V4.1c0-1.2-1.2-2.4-2.4-2.4h-3c-1.2,0-2.4,1.2-2.4,2.4v1.2v0.3c0,3.3,0,6.9,0,10.5v23.1l-3-2.4
			c-3-2.1-6-3.9-9.3-4.8c-3.3-1.2-7.2-1.5-12-1.2c-3,0.3-6,1.2-9,2.7s-5.4,3.3-7.8,5.7c-2.4,2.4-4.2,4.8-5.7,7.8
			c-1.5,2.7-2.4,5.7-2.4,9c-0.6,5.7,0,10.5,1.8,14.1c1.5,3.6,3.9,6.9,6.9,9.6c2.7,2.7,6,4.8,9.6,6.6c2.7,1.2,6,1.8,9.6,1.8
			c1.2,0,2.4,0,3.6-0.3c3.3-0.3,6.6-1.2,9.6-2.7c3-1.5,5.7-3.3,7.8-5.7c2.1-2.4,4.2-5.1,5.4-8.1c1.5-3,2.1-6.3,2.4-9.6
			c0.3-5.1,0.6-10.2,0.3-15C347.1,44.6,347.1,42.8,346.8,41.3z M338.7,63.2c-0.9,3.3-2.1,6.3-4.2,8.7c-2.1,2.4-4.5,4.5-7.2,5.7
			c-2.7,1.5-5.7,2.1-9,2.1c-2.7,0-5.7-0.6-8.1-1.8c-2.7-1.2-4.8-2.7-6.9-4.5c-1.8-1.8-3.3-4.2-4.5-6.9c-1.2-2.7-1.5-5.7-1.2-8.7l0,0
			c0.3-5.1,2.4-9.3,5.7-12.9c3.3-3.3,7.5-5.4,12.6-6c2.7-0.3,5.1,0,7.5,0.6c2.4,0.6,4.5,1.5,6.3,3c1.8,1.2,3.6,3,4.8,4.8
			c1.2,1.8,2.4,3.9,3,6C339.3,56.3,339.3,59.9,338.7,63.2z"/>
	</g>
	<g>
		<path class="st0" d="M478,29.3h-3c-1.2,0-2.4,1.2-2.4,2.4v53.6c0,1.2,1.2,2.4,2.4,2.4h3c1.2,0,2.4-1.2,2.4-2.4V31.7
			C480.4,30.2,479.2,29.3,478,29.3z"/>
		<path class="st0" d="M537,65c-0.9-1.8-1.8-3-3.3-4.2c-1.5-1.2-3-2.1-4.8-3c-2.1-0.9-4.2-1.5-6.6-2.1l-4.2-0.9
			c-1.8-0.3-3.6-0.9-5.1-1.5c-1.8-0.6-3.3-1.8-4.5-3c-1.5-1.2-2.1-3.3-2.1-5.4c0-2.7,1.2-4.8,3.6-6.3c2.1-1.2,4.8-1.8,7.5-1.8
			c3,0,5.7,0.6,7.8,1.8c0.6,0.3,1.5,0.9,2.1,1.5c1.5,1.2,3.3,1.2,4.8,0c0.9-0.9,1.5-2.1,1.5-3.3s-0.6-2.4-1.5-3
			c-1.2-0.9-2.4-1.5-3.6-2.1c-5.7-2.4-12.3-2.7-18.3-0.9c-2.4,0.6-4.8,1.8-6.6,3c-1.8,1.2-3.3,3-4.5,5.1c-1.2,2.1-1.8,4.5-1.8,7.2
			c0,2.4,0.3,4.5,1.2,6.3c0.9,1.8,2.1,3,3.6,4.2s3.3,2.1,5.1,2.7c2.1,0.6,4.2,1.5,6.6,1.8c0.9,0.3,2.4,0.6,4.2,0.9
			c1.8,0.3,3.3,0.9,4.8,1.5c1.5,0.6,3,1.8,4.2,3c1.2,1.5,2.1,3,2.1,5.1c0,1.5-0.6,3-1.5,4.2s-1.8,2.1-3.3,2.7
			c-1.2,0.6-2.7,1.2-4.2,1.5c-1.5,0.3-3,0.6-4.5,0.6c-3.6,0-6.6-0.9-9-2.4c-0.9-0.6-1.8-1.2-2.7-1.8c-1.5-1.2-3.6-1.2-5.1,0h-0.3
			c-0.9,0.9-1.5,1.8-1.5,3s0.6,2.1,1.5,3c1.5,1.2,3.3,2.4,4.8,3l0,0c3.3,1.5,7.5,2.1,12,2.1c2.7,0,5.4-0.3,8.1-0.9
			c2.7-0.6,5.1-1.5,6.9-3c2.1-1.2,3.6-3,4.8-5.1c1.2-2.1,1.8-4.5,1.8-7.5C538.2,68.6,537.9,66.5,537,65z"/>
		<path class="st0" d="M449.8,79.9c-2.1,0-3.9,1.8-3.9,3.9s1.8,3.9,3.9,3.9s3.9-1.8,3.9-3.9S451.9,79.9,449.8,79.9z"/>
	</g>
</g>
</svg>
